<?xml version="1.0" ?><svg viewBox="0 0 64 64" xmlns="http://www.w3.org/2000/svg"><title/><g id="Cloudy"><path d="M58.7051,20.438q.0145-.2022.0146-.4028a5.5933,5.5933,0,0,0-5.2456-5.5806A10.17,10.17,0,0,0,35.042,13.1875a8.0309,8.0309,0,0,0-.9019-.0527,8.1458,8.1458,0,0,0-6.312,2.9643,1,1,0,0,0,.8472,1.6328c.1055-.0078.2183-.0073.3247-.0068a13.0334,13.0334,0,0,1,11.8394,7.6431,1,1,0,0,0,1.1147.5659,10.0178,10.0178,0,0,1,9.626,3.271.9994.9994,0,0,0,.76.35h7.95a1,1,0,0,0,.8633-.4951A6.2019,6.2019,0,0,0,62,25.9351,6.2788,6.2788,0,0,0,58.7051,20.438Z" style="fill:#7cc9f2"/><path d="M55.9771,34.98A12.006,12.006,0,0,0,44,23.7251a12.1858,12.1858,0,0,0-1.6792.1162A15.0383,15.0383,0,0,0,29,15.7251c-.1543,0-.3208.001-.4272.01a14.9263,14.9263,0,0,0-13.7115,9.9907A8.01,8.01,0,0,0,7,33.7251a7.91,7.91,0,0,0,.0537.916A9.0644,9.0644,0,0,0,2,42.7251a8.8729,8.8729,0,0,0,1.2188,4.5078.9991.9991,0,0,0,.8613.4922H15.36a1,1,0,0,0,.9878-.8442,7.7477,7.7477,0,0,1,15.3046,0,1,1,0,0,0,.9878.8442h27.1a.9991.9991,0,0,0,.8194-.4268A7.942,7.942,0,0,0,62,42.7251,8.03,8.03,0,0,0,55.9771,34.98Z" style="fill:#9cd5f2"/><path d="M33.7368,47.61a10.2752,10.2752,0,0,0-.1089-1.0406,9.7478,9.7478,0,0,0-19.2563.0025,10.3531,10.3531,0,0,0-.1084,1.0381A7.9712,7.9712,0,0,0,9,55.105a1,1,0,0,0,1,1H38a1,1,0,0,0,1-1A7.9712,7.9712,0,0,0,33.7368,47.61Z" style="fill:#b2ebf2"/><path d="M55.9771,34.98a11.9765,11.9765,0,0,0-1.6865-5.4248H60.29a1,1,0,0,0,.8633-.4951A6.2019,6.2019,0,0,0,62,25.9351a6.2788,6.2788,0,0,0-3.2949-5.4971q.0145-.2022.0146-.4028a5.5933,5.5933,0,0,0-5.2456-5.5806A10.17,10.17,0,0,0,35.042,13.1875a8.0309,8.0309,0,0,0-.9019-.0527,8.14,8.14,0,0,0-6.003,2.6292,14.9169,14.9169,0,0,0-13.2758,9.9621A8.01,8.01,0,0,0,7,33.7251a7.91,7.91,0,0,0,.0537.916A9.0644,9.0644,0,0,0,2,42.7251a8.8729,8.8729,0,0,0,1.2188,4.5078.9991.9991,0,0,0,.8613.4922h9.9281A7.9588,7.9588,0,0,0,9,55.105a1,1,0,0,0,1,1H38a1,1,0,0,0,1-1,7.9588,7.9588,0,0,0-5.0082-7.38H59.74a.9991.9991,0,0,0,.8194-.4268A7.942,7.942,0,0,0,62,42.7251,8.03,8.03,0,0,0,55.9771,34.98ZM34.14,15.1348a6.8327,6.8327,0,0,1,1.2808.1323,1.0025,1.0025,0,0,0,1.1-.5684A8.1708,8.1708,0,0,1,51.8,15.7476a.99.99,0,0,0,1.0405.7138c.0947-.0073.1968-.0166.2993-.0166a3.5893,3.5893,0,0,1,3.58,3.59,3.6965,3.6965,0,0,1-.0864.7856,1,1,0,0,0,.6226,1.1494A4.2658,4.2658,0,0,1,60,25.9351a4.1935,4.1935,0,0,1-.3262,1.62H52.7886c-.1033-.1117-.2181-.2095-.3252-.3167-.1355-.1357-.27-.2721-.4113-.4006-.1719-.1563-.3509-.3018-.5309-.4472-.1476-.1193-.2932-.24-.4461-.3523-.1872-.137-.3816-.2617-.576-.3872-.1574-.1017-.3122-.2068-.474-.3008-.2025-.1177-.4119-.2211-.6207-.3265-.1643-.0829-.3254-.1708-.4933-.246-.2186-.098-.4438-.18-.668-.2645-.1671-.0631-.331-.1329-.5009-.1886-.239-.0782-.4838-.138-.7278-.2011-.1623-.0421-.3217-.0929-.4861-.1281-.2746-.0589-.5544-.0967-.8339-.1363-.1394-.02-.2762-.05-.4167-.065a12.0327,12.0327,0,0,0-2.9569.047,14.956,14.956,0,0,0-.8446-1.4151c-.0457-.0686-.089-.1386-.1357-.2064a15.0028,15.0028,0,0,0-.9489-1.2276c-.064-.0747-.1285-.1481-.1938-.2215a15.0478,15.0478,0,0,0-1.0822-1.1018c-.0555-.0507-.1135-.0979-.17-.1478a15.074,15.074,0,0,0-1.2127-.9747c-.021-.0151-.0406-.0319-.0617-.0468a15.1,15.1,0,0,0-1.3386-.84c-.0778-.0438-.1542-.0892-.2328-.1317a15.05,15.05,0,0,0-1.3772-.6536c-.0907-.0377-.1818-.0732-.2733-.1091a14.9858,14.9858,0,0,0-1.47-.4959c-.0637-.0177-.1285-.031-.1925-.0478a14.8986,14.8986,0,0,0-1.5189-.3178c-.0323-.005-.063-.0152-.0952-.02A6.2028,6.2028,0,0,1,34.14,15.1348Zm2.7759,38.97H11.084a5.9822,5.9822,0,0,1,4.4321-4.79,1,1,0,0,0,.7539-.9693,1.3708,1.3708,0,0,0-.02-.24,8.0412,8.0412,0,0,1,.0977-1.2241A7.7072,7.7072,0,0,1,24,40.3452a7.8462,7.8462,0,0,1,2.08.2786,7.6927,7.6927,0,0,1,5.43,5.5594c.0371.148.0633.3007.0922.4524.0155.0814.0365.16.05.2429a7.8074,7.8074,0,0,1,.0966,1.2109,1.97,1.97,0,0,0-.0185.2558,1,1,0,0,0,.7539.9693A5.9822,5.9822,0,0,1,36.916,54.105Zm22.2774-8.38H33.4575l-.0053-.0183c-.0184-.0735-.0434-.1439-.0634-.2167-.0557-.2033-.1126-.4061-.1805-.6033-.0343-.1-.076-.1952-.1133-.2933-.0631-.1658-.1254-.332-.1969-.493-.0464-.1043-.0991-.2044-.149-.3066-.0723-.1485-.1441-.2973-.2235-.4412-.0574-.1039-.12-.2037-.1811-.3051-.0815-.1357-.1629-.2712-.2507-.4023-.0674-.1008-.1393-.1977-.21-.2956-.0905-.1248-.1815-.2487-.2777-.3687-.0763-.0953-.1558-.1871-.2355-.2793-.1-.1153-.2006-.2291-.3055-.3394-.0843-.0886-.1708-.1743-.2583-.26-.1086-.1058-.2189-.2093-.3322-.31q-.1375-.1221-.28-.2384-.1748-.1435-.3561-.2783c-.0988-.0736-.1982-.1459-.3-.2158-.1244-.0856-.2515-.167-.38-.2468-.1045-.0649-.2091-.1294-.3162-.19-.1326-.0754-.268-.1455-.4043-.2148-.1089-.0554-.2173-.1113-.3286-.1627-.1415-.0653-.2861-.124-.4311-.1826-.1116-.045-.2221-.0918-.3357-.1329-.1516-.0547-.3065-.1016-.4615-.1489-.1121-.0343-.2229-.0715-.3367-.1019-.1637-.0436-.3307-.0778-.4976-.113-.11-.0231-.2174-.05-.3282-.07-.1863-.0327-.376-.0543-.5657-.0764-.0948-.011-.1879-.0276-.2835-.0359-.2868-.025-.5767-.0389-.87-.0389s-.583.0139-.87.0389c-.0956.0083-.1887.0249-.2835.0359-.19.0221-.3794.0437-.5657.0764-.1108.02-.2187.0469-.3282.07-.1669.0352-.3339.0694-.4976.113-.1138.03-.2246.0675-.3367.1019-.155.0473-.31.0942-.4615.1489-.1134.041-.2237.0877-.335.1327-.1455.0587-.2906.1177-.4325.1832-.11.0508-.2176.1063-.3256.1611-.1378.07-.2746.1409-.4085.2172-.1054.06-.2081.1234-.311.1872-.1305.081-.26.1638-.386.2508-.1.0685-.1968.1392-.2935.2113q-.185.1379-.363.2837-.1386.114-.2728.2326c-.1162.1029-.2292.209-.34.3175-.0846.0826-.1685.1655-.25.2512-.1083.1137-.2123.2311-.315.35-.0766.0886-.1529.1769-.2263.2683-.1.1246-.1945.2534-.2884.3832-.0674.0931-.1357.1851-.2.2808-.0917.1369-.177.2783-.262.42-.0573.0957-.1165.19-.1707.2877-.083.15-.1582.3056-.2336.461-.0465.0961-.0963.19-.14.288-.0753.1695-.1411.3441-.2072.5189-.0338.09-.072.1767-.1034.2677-.0719.2091-.1329.4237-.1912.64-.0166.0613-.0379.12-.0533.1822l-.0055.0187H4.6787a6.91,6.91,0,0,1-.6787-3A7.049,7.049,0,0,1,8.5259,36.18a1,1,0,0,0,.62-1.1533A5.9891,5.9891,0,0,1,15,27.7251a4.4324,4.4324,0,0,1,.4751.0244,1,1,0,0,0,1.0645-.7124,12.9527,12.9527,0,0,1,12.1357-9.3052c.1055-.0078.2183-.0073.3247-.0068a13.0334,13.0334,0,0,1,11.8394,7.6431,1,1,0,0,0,1.1147.5659,10.1109,10.1109,0,0,1,3.134-.15A10.0071,10.0071,0,0,1,54,35.8052a1,1,0,0,0,.86.99,6.0121,6.0121,0,0,1,5.14,5.93A5.9447,5.9447,0,0,1,59.1934,45.7251Z" style="fill:#776d8a"/></g></svg>